<svg xmlns="http://www.w3.org/2000/svg" version="1.1" width="4024px" height="973px" style="shape-rendering:geometricPrecision; text-rendering:geometricPrecision; image-rendering:optimizeQuality; fill-rule:evenodd; clip-rule:evenodd" xmlns:xlink="http://www.w3.org/1999/xlink">
<g><path style="opacity:0.996" fill="#ffffff" d="M 649.5,-0.5 C 658.167,-0.5 666.833,-0.5 675.5,-0.5C 711.38,7.21541 732.547,29.2154 739,65.5C 739.167,140.169 739.667,214.836 740.5,289.5C 765.129,273.342 792.129,263.175 821.5,259C 962.675,237.031 1071.84,285.531 1149,404.5C 1172.5,444.999 1185.5,488.666 1188,535.5C 1188.67,659.167 1188.67,782.833 1188,906.5C 1182.06,937.441 1164.23,958.274 1134.5,969C 1095.74,977.754 1065.57,965.588 1044,932.5C 1040.14,924.905 1037.47,916.905 1036,908.5C 1035.67,788.5 1035.33,668.5 1035,548.5C 1029.75,487.132 999.251,443.632 943.5,418C 887.115,398.05 835.781,406.717 789.5,444C 760.127,470.246 743.627,503.079 740,542.5C 739.667,663.5 739.333,784.5 739,905.5C 734.137,933.384 718.97,953.551 693.5,966C 648.741,980.527 614.908,967.36 592,926.5C 589.399,920.765 587.733,914.765 587,908.5C 586.333,626.5 586.333,344.5 587,62.5C 594.666,28.3345 615.499,7.33451 649.5,-0.5 Z"/></g>
<g><path style="opacity:0.995" fill="#ffffff" d="M 2942.5,-0.5 C 2951.17,-0.5 2959.83,-0.5 2968.5,-0.5C 3001.38,6.21036 3022.21,25.877 3031,58.5C 3032.32,144.137 3032.98,229.803 3033,315.5C 3060.74,292.379 3092.24,276.213 3127.5,267C 3172.54,256.139 3218.21,252.139 3264.5,255C 3358.34,262.173 3437.17,300.006 3501,368.5C 3578.29,453.72 3608.95,553.72 3593,668.5C 3581.78,741.272 3551.11,804.272 3501,857.5C 3413.85,947.778 3307.68,984.611 3182.5,968C 3109.72,956.774 3046.72,926.108 2993.5,876C 2924.71,811.912 2886.88,732.745 2880,638.5C 2879.33,446.833 2879.33,255.167 2880,63.5C 2887.23,28.7733 2908.06,7.43998 2942.5,-0.5 Z M 3229.5,408.5 C 3311.55,408.468 3374.05,443.135 3417,512.5C 3447.12,569.571 3451.45,628.571 3430,689.5C 3411.32,734.191 3381.15,769.024 3339.5,794C 3282.75,823.878 3224.09,828.211 3163.5,807C 3098.59,779.343 3056.76,731.509 3038,663.5C 3020.09,568.487 3050.59,493.653 3129.5,439C 3160.29,420.234 3193.63,410.067 3229.5,408.5 Z"/></g>
<g><path style="opacity:0.995" fill="#0d61ff" d="M 4023.5,186.5 C 4023.5,191.833 4023.5,197.167 4023.5,202.5C 4018.55,268.252 3988.55,319.086 3933.5,355C 3868.17,391.667 3802.83,391.667 3737.5,355C 3680.15,317.169 3650.15,263.669 3647.5,194.5C 3650.94,116.302 3687.27,59.4691 3756.5,24C 3817.15,-1.57909 3876.15,1.75425 3933.5,34C 3988.54,69.9029 4018.54,120.736 4023.5,186.5 Z"/></g>
<g><path style="opacity:0.993" fill="#ffffff" d="M -0.5,639.5 C -0.5,621.833 -0.5,604.167 -0.5,586.5C 7.1639,492.342 45.4972,413.176 114.5,349C 190.175,279.878 279.508,248.545 382.5,255C 413.322,256.915 443.322,262.915 472.5,273C 504.964,285.906 520.631,309.906 519.5,345C 518.152,385.018 498.152,410.352 459.5,421C 449.5,423 439.5,423 429.5,421C 380.702,404.092 332.036,404.426 283.5,422C 212.279,452.265 169.446,505.432 155,581.5C 144.294,675.582 179.128,747.082 259.5,796C 305.205,819.547 353.205,825.88 403.5,815C 414.073,811.919 424.74,809.253 435.5,807C 471.714,805.019 497.881,820.185 514,852.5C 530.142,910.068 509.309,945.902 451.5,960C 368.646,980.627 287.979,974.293 209.5,941C 128.277,901.444 68.1107,840.944 29,759.5C 12.2302,721.089 2.39686,681.089 -0.5,639.5 Z"/></g>
<g><path style="opacity:0.994" fill="#ffffff" d="M 1606.5,254.5 C 1733.96,248.329 1837.46,294.662 1917,393.5C 1959.6,448.084 1983.94,510.084 1990,579.5C 1991.63,687.488 1991.96,795.488 1991,903.5C 1987.44,931.726 1972.94,952.226 1947.5,965C 1906.37,980.174 1873.2,970.007 1848,934.5C 1841.85,923.238 1838.19,911.238 1837,898.5C 1801.29,933.942 1758.46,956.109 1708.5,965C 1543.13,991.531 1414.63,935.365 1323,796.5C 1279.78,721.216 1264.78,640.549 1278,554.5C 1289.03,485.775 1317.7,425.775 1364,374.5C 1408.56,324.63 1462.73,289.464 1526.5,269C 1552.82,261.449 1579.49,256.615 1606.5,254.5 Z M 1619.5,407.5 C 1706.37,406.173 1771.54,442.84 1815,517.5C 1839.36,566.886 1844.36,618.219 1830,671.5C 1810.67,730.491 1773.17,773.658 1717.5,801C 1666.59,821.919 1614.93,823.919 1562.5,807C 1498.67,781.837 1456.17,736.671 1435,671.5C 1412.62,576.619 1440.12,500.119 1517.5,442C 1548.54,421.598 1582.54,410.098 1619.5,407.5 Z"/></g>
<g><path style="opacity:0.994" fill="#ffffff" d="M 2409.5,254.5 C 2544.44,248.895 2651.61,300.229 2731,408.5C 2767.71,460.96 2788.38,519.293 2793,583.5C 2794.62,688.824 2794.95,794.157 2794,899.5C 2791.41,931.759 2775.24,954.259 2745.5,967C 2705.33,979.057 2673.5,967.89 2650,933.5C 2644.34,922.518 2641,910.851 2640,898.5C 2602.67,935.414 2557.84,957.914 2505.5,966C 2343.39,989.665 2217.22,933.832 2127,798.5C 2083.71,724.437 2068.04,644.771 2080,559.5C 2088.79,498.085 2112.12,443.085 2150,394.5C 2188.77,345.391 2236.6,307.891 2293.5,282C 2330.8,266.508 2369.46,257.341 2409.5,254.5 Z M 2421.5,407.5 C 2514.95,406.286 2582.45,447.286 2624,530.5C 2643.3,578.657 2645.63,627.657 2631,677.5C 2611.53,731.979 2576.03,772.479 2524.5,799C 2471.44,822.221 2417.44,824.554 2362.5,806C 2295.86,778.692 2253.36,730.192 2235,660.5C 2218.24,571.086 2245.74,498.92 2317.5,444C 2348.81,422.175 2383.48,410.008 2421.5,407.5 Z"/></g>
<g><path style="opacity:0.995" fill="#ffffff" d="M 3904.5,972.5 C 3858.5,972.5 3812.5,972.5 3766.5,972.5C 3716.08,963.579 3685.91,933.912 3676,883.5C 3675.33,874.5 3675.33,865.5 3676,856.5C 3696.13,734.725 3716.8,613.059 3738,491.5C 3755.73,447.712 3788.23,424.712 3835.5,422.5C 3874.75,423.363 3904.58,440.363 3925,473.5C 3930.36,482.882 3934.02,492.882 3936,503.5C 3955.45,620.871 3975.12,738.205 3995,855.5C 3998.92,908.85 3976.42,946.017 3927.5,967C 3919.81,969.3 3912.14,971.134 3904.5,972.5 Z"/></g>
</svg>
