<svg xmlns="http://www.w3.org/2000/svg" width="32" height="32" viewBox="0 0 32 32" fill="none">
  <path d="M15.3333 2.66675C9.08 2.66675 4 7.74675 4 14.0001C4 20.2534 9.08 25.3334 15.3333 25.3334H16V29.3334C22.48 26.2134 26.6667 20.0001 26.6667 14.0001C26.6667 7.74675 21.5867 2.66675 15.3333 2.66675ZM16.6667 22.0001H14V19.3334H16.6667V22.0001ZM17.2 15.6267C17.1867 15.6401 17.1733 15.6667 17.16 15.6934C17.0933 15.8001 17.0267 15.9067 16.9733 16.0134C16.9467 16.0534 16.9333 16.1067 16.92 16.1601C16.88 16.2534 16.84 16.3467 16.8133 16.4401C16.72 16.7201 16.68 17.0134 16.68 17.3467H14C14 16.6667 14.1067 16.0934 14.2667 15.6134C14.2667 15.6001 14.2667 15.5867 14.28 15.5734C14.2933 15.5201 14.3333 15.4934 14.3467 15.4401C14.4267 15.2267 14.52 15.0401 14.64 14.8534C14.68 14.7867 14.7333 14.7201 14.7733 14.6534C14.8133 14.6001 14.84 14.5334 14.88 14.4934L14.8933 14.5067C16.0133 13.0401 17.84 12.5867 17.9867 10.9334C18.1067 9.62675 17.1733 8.36008 15.8933 8.09341C14.5067 7.80008 13.2533 8.61341 12.8267 9.80008C12.64 10.2801 12.2 10.6667 11.6533 10.6667H11.3867C10.5867 10.6667 10 9.88008 10.2267 9.10675C10.6003 7.88064 11.4027 6.82999 12.4873 6.14692C13.5719 5.46385 14.8661 5.19401 16.1333 5.38675C18.3867 5.72008 20.1867 7.57341 20.5733 9.82675C21.16 13.0801 18.4 13.8667 17.2 15.6267Z"/>
</svg>