<svg xmlns="http://www.w3.org/2000/svg" width="32" height="32" viewBox="0 0 32 32" fill="none">
  <path d="M21.3332 22.6667V25.3333H2.6665V22.6667C2.6665 22.6667 2.6665 17.3333 11.9998 17.3333C21.3332 17.3333 21.3332 22.6667 21.3332 22.6667ZM16.6665 9.99999C16.6665 9.07701 16.3928 8.17476 15.88 7.40733C15.3672 6.6399 14.6384 6.04176 13.7857 5.68855C12.933 5.33534 11.9947 5.24293 11.0894 5.42299C10.1842 5.60306 9.35265 6.04751 8.70001 6.70016C8.04736 7.3528 7.6029 8.18432 7.42284 9.08957C7.24277 9.99481 7.33519 10.9331 7.6884 11.7858C8.04161 12.6386 8.63975 13.3674 9.40718 13.8802C10.1746 14.393 11.0769 14.6667 11.9998 14.6667C13.2375 14.6667 14.4245 14.175 15.2997 13.2998C16.1748 12.4247 16.6665 11.2377 16.6665 9.99999ZM21.2532 17.3333C22.0728 17.9677 22.7435 18.7739 23.2181 19.6953C23.6926 20.6168 23.9595 21.631 23.9998 22.6667V25.3333H29.3332V22.6667C29.3332 22.6667 29.3332 17.8267 21.2532 17.3333ZM19.9998 5.33332C19.0821 5.32821 18.1845 5.6026 17.4265 6.11999C18.2364 7.25164 18.6719 8.60837 18.6719 9.99999C18.6719 11.3916 18.2364 12.7483 17.4265 13.88C18.1845 14.3974 19.0821 14.6718 19.9998 14.6667C21.2375 14.6667 22.4245 14.175 23.2997 13.2998C24.1748 12.4247 24.6665 11.2377 24.6665 9.99999C24.6665 8.76231 24.1748 7.57533 23.2997 6.70016C22.4245 5.82499 21.2375 5.33332 19.9998 5.33332Z"/>
</svg>